<svg xmlns="http://www.w3.org/2000/svg" width="727" height="1080" viewBox="0 0 727 1080">
  <defs>
    <style>
      .cls-1 {
        fill: red;
        fill-rule: evenodd;
      }
    </style>
  </defs>
  <path id="Color_Fill_1" data-name="Color Fill 1" class="cls-1" d="M96,378c14.879-.194,33.322-0.963,47,2,8.421,1.824,19.825-.554,27,1h24c14.346,3.143,29.934,1.8,42,7,9.481,4.089,15.214,14.146,23,20,2.985,2.244,6.4,3.427,9,6,5.82-.024,14.839,1.268,19-1,8.885-4.842,12.936-17.786,24-21,8.124-2.36,50.653-.61,58,1l28,1c26.849,6.233,53.017,8,84,8,24.13,0,54.373-2.766,73,4,6.2,2.25,11.469.926,13,8-13.474,7.346-30.886,9.8-46,16-10.5,4.307-22.452,10.527-33,14-5.63,1.854-10.539,1.168-15,3-4.747,7.839-5.531,16.579-9,27-5.276,15.852-12.96,36.054-23,48-17.183,20.445-74.085,12.785-107,11l-16-13c-9.45-12.545-17.383-26.881-26-40-4.293-6.537-7.3-20.124-15-23-1.681-1.344-3.143-1.637-6-2-3.8,5.885-10.2,9.978-14,16-10.779,17.063-17.6,41.788-37,50-15.082,6.384-38.444,1.552-53-2-15.69-3.829-31.553-3.141-43-11-23.6-16.2-44.476-83.1-35-127l3-1C92.86,379.351,95.144,378.662,96,378Zm62,23q-2.5,4-5,8c-7.63,5.152-24.31,3.185-28,12-3.633,5.709-.36,31.6,1,37,5.227,20.751,8.692,33.786,28,40,6.694,2.155,11.54,1.229,19,3,6.652,1.579,26.51,5.019,35,3,26.653-6.338,42.982-47.926,35-82-4.445-2.175-7.677-6.09-12-8C211.426,405.349,184.319,401.4,158,401Zm165,15c-7.9,4.657-16.784,1.648-20,11-2.636,4.558,5.164,24.017,7,29,10.924,29.649,15.16,51.4,49,59,9.278,2.083,43.589,1.568,51-1,3.735-1.295,11.181-6.7,13-10,4.208-7.628,1.876-17.31,4-27a77.674,77.674,0,0,0,2-14c0.2-9.579,1.028-21.135-2-28C415.664,409.3,359.97,415.549,323,416Z"/>
</svg>
