<svg xmlns="http://www.w3.org/2000/svg" width="727" height="1080" viewBox="0 0 727 1080">
  <defs>
    <!-- <style>
      .cls-1 {
        fill: #b51010;
        fill-rule: evenodd;
      }
    </style> -->
  </defs>
  <path id="Color_Fill_2" data-name="Color Fill 2" class="cls-1" d="M96,381c29.483-.169,64.735-3.664,91,2h15c9.413,2.047,19.317,1.837,28,5,17.665,6.435,22.013,25.213,37,29,22.741,5.747,26.172-10.913,36-18,3.645-2.628,8.947-3.879,14-5,10.133-2.249,36.3-.875,45,1l31,1c9.285,2.025,19.7.684,30,3,9.154,2.058,21.3,4.747,30,6,2.911,0.419,4.348-1.587,6-2h22c28.086,0.007,58.876-.943,84,4v5c-27,16.281-56.474,23.54-93,31-1.522,5.9-6.281,8.367-8,13l-3,18c-7.116,21.805-17.286,47.535-38,56-7.906,3.231-18.041-.133-28,2-5.932,1.27-17.068,1.289-23,0-16.636-3.616-33.8,1.066-45-7-14.192-10.22-25.711-32.269-33-49-4.027-9.245-6.863-27.18-16-31-3.217-2.968-7.1-1.521-12-1-12.362,17.226-26.269,66.731-43,75-11.024,5.449-46.074-.691-55-3-14.187-3.67-29.109-3.211-40-10-8.83-5.5-12.46-14-18-23-16.345-26.551-20.315-55.16-20-99l3-1C93.771,382.318,95.232,381.689,96,381Zm61,19c-7.641,11.061-24.015,9.144-35,17-2.066,3.151-1.13,12.069-1,17-3.217,5.376,2.309,28.139,4,33,2.944,8.463,4.3,18.309,10,24,8.737,8.727,57.191,19.894,76,15,18.888-4.915,24.645-21.355,31-39,2.986-8.29,9.981-32.463,3-43C238.507,404.378,185.417,399.976,157,400Zm156,12c-14.553,10.75-16.717,2.485-16,30,3.377,5.539,2.49,14.072,5,20,6.793,16.046,24.917,48.074,41,54,9.766,3.6,21.461-.432,33,2,18.064,3.807,38.77.539,46-10,5.782-8.428,5.242-16.728,8-29,1.786-7.947,1.651-16.635,3-24,0.639-3.489-1.19-11.088-2-14-1.228-4.419-.787-7.7-3-11C413.225,407.951,350.966,411.654,313,412Z"/>
</svg>
